<?xml version="1.0" encoding="UTF-8"?>
<svg id="Layer_1" data-name="Layer 1" xmlns="http://www.w3.org/2000/svg" xmlns:xlink="http://www.w3.org/1999/xlink" viewBox="0 0 1332.71 810.47">
  <defs>
    <style>
      .cls-1 {
        fill: #1b203c;
      }

      .cls-1, .cls-2, .cls-3, .cls-4 {
        stroke-width: 0px;
      }

      .cls-2 {
        fill: #bac5cf;
      }

      .cls-5 {
        stroke: #1b203c;
        stroke-miterlimit: 10;
        stroke-width: .5px;
      }

      .cls-5, .cls-3 {
        fill: none;
      }

      .cls-4 {
        fill: #fff;
      }

      .cls-6 {
        clip-path: url(#clippath);
      }
    </style>
    <clipPath id="clippath">
      <circle class="cls-3" cx="695.52" cy="334.87" r="334.87" transform="translate(-33.07 589.89) rotate(-45)"/>
    </clipPath>
  </defs>
  <g class="cls-6">
    <circle class="cls-1" cx="695.52" cy="334.87" r="334.87" transform="translate(-33.07 589.89) rotate(-45)"/>
    <path class="cls-2" d="m694.77,256.92c-2.81,0-5.09-2.28-5.09-5.09,0-46.36,37.72-84.07,84.08-84.07h108.84c31.86,0,57.79-25.92,57.79-57.79s-25.92-57.78-57.79-57.78c-2.81,0-5.09-2.28-5.09-5.09s2.28-5.09,5.09-5.09c37.48,0,67.97,30.49,67.97,67.97s-30.49,67.97-67.97,67.97h-108.84c-40.74,0-73.89,33.15-73.89,73.89,0,2.81-2.28,5.09-5.09,5.09Z"/>
    <path class="cls-4" d="m831.61,201.76c-34.56,0-65.44,15.68-85.97,40.29h-101.73c-20.53-24.61-51.41-40.29-85.97-40.29-61.82,0-111.93,50.11-111.93,111.93s50.11,111.93,111.93,111.93c33.9,0,64.22-15.13,84.74-38.94h104.19c20.53,23.81,50.84,38.94,84.74,38.94,61.82,0,111.93-50.11,111.93-111.93s-50.11-111.93-111.93-111.93Z"/>
    <circle class="cls-1" cx="831.61" cy="313.69" r="81.6"/>
    <g>
      <path class="cls-2" d="m826.54,291.16c0-10.29-8.34-18.63-18.63-18.63s-18.63,8.34-18.63,18.63,8.34,18.63,18.63,18.63,18.63-8.34,18.63-18.63Z"/>
      <path class="cls-2" d="m873.93,291.16c0-10.29-8.34-18.63-18.63-18.63s-18.63,8.34-18.63,18.63,8.34,18.63,18.63,18.63,18.63-8.34,18.63-18.63Z"/>
      <path class="cls-2" d="m826.54,335.87c0-10.29-8.34-18.63-18.63-18.63s-18.63,8.34-18.63,18.63,8.34,18.63,18.63,18.63,18.63-8.34,18.63-18.63Z"/>
      <path class="cls-2" d="m873.93,335.87c0-10.29-8.34-18.63-18.63-18.63s-18.63,8.34-18.63,18.63,8.34,18.63,18.63,18.63,18.63-8.34,18.63-18.63Z"/>
    </g>
    <circle class="cls-1" cx="557.93" cy="313.69" r="81.6"/>
    <path class="cls-2" d="m600.99,301.2l-25.44.05c-1.99,0-3.61-1.6-3.61-3.59l-.05-25.44c0-1.99-1.62-3.6-3.61-3.59l-20.89.04c-1.99,0-3.6,1.62-3.59,3.61l.05,25.44c0,1.99-1.6,3.6-3.59,3.61l-25.44.05c-1.99,0-3.6,1.62-3.59,3.61l.04,20.89c0,1.99,1.62,3.6,3.61,3.59l25.44-.05c1.99,0,3.6,1.6,3.61,3.59l.05,25.44c0,1.99,1.62,3.6,3.61,3.59l20.89-.04c1.99,0,3.6-1.62,3.59-3.61l-.05-25.44c0-1.99,1.6-3.6,3.59-3.61l25.44-.05c1.99,0,3.6-1.62,3.59-3.61l-.04-20.89c0-1.99-1.62-3.6-3.61-3.59Z"/>
    <g>
      <rect class="cls-1" x="698.11" y="313.53" width="28.88" height="9.33" rx=".61" ry=".61"/>
      <rect class="cls-1" x="664.94" y="313.53" width="28.88" height="9.33" rx=".61" ry=".61"/>
    </g>
    <rect class="cls-5" x="656.2" y="305.97" width="78.98" height="24.44" rx="1.35" ry="1.35"/>
  </g>
  <g>
    <g>
      <path class="cls-1" d="m353.21,460.76c-2.81,0-5.44-1.76-6.41-4.56-1.94-5.57-3.75-11.19-5.42-16.88-1.06-3.6.99-7.37,4.59-8.43,3.61-1.06,7.37,1,8.43,4.59,1.62,5.47,3.35,10.89,5.22,16.26,1.23,3.54-.64,7.41-4.18,8.64-.74.26-1.49.38-2.23.38Z"/>
      <path class="cls-1" d="m340.52,414.65c-3.16,0-5.99-2.21-6.64-5.43-4.97-24.31-7.49-49.32-7.49-74.35,0-85.56,29.93-168.95,84.29-234.81,2.39-2.89,6.66-3.31,9.56-.91,2.89,2.39,3.3,6.67.91,9.56-52.36,63.43-81.19,143.76-81.19,226.16,0,24.11,2.43,48.21,7.21,71.63.76,3.67-1.62,7.26-5.29,8.01-.46.1-.91.14-1.37.14Z"/>
    </g>
    <path class="cls-1" d="m1034.35,212.97c-2.74,0-5.32-1.67-6.34-4.38-31.16-81.99-91.32-149.37-169.38-189.74-3.33-1.72-4.63-5.82-2.92-9.15,1.72-3.32,5.81-4.64,9.15-2.91,81.05,41.91,143.49,111.86,175.84,196.98,1.33,3.51-.43,7.43-3.93,8.76-.8.3-1.61.45-2.41.45Z"/>
  </g>
  <g>
    <g>
      <path class="cls-1" d="m62.37,524.23l33.8-26.24,78.23-2.63,19.05,24.46-15.53,53.43-52.25,1.75,8.12-25.39-27.16.91-28.54,104.68,25.67-.86,6.66-25.62-12.25.41,7.3-26.25,65.98-2.22-21.61,79.33-33.82,26.55-80.32,2.7-18.72-24.78,45.4-160.24Z"/>
      <path class="cls-1" d="m35.7,726.23c-5.31,0-10.33-2.49-13.55-6.74l-18.72-24.78c-3.2-4.24-4.24-9.74-2.78-14.86l45.4-160.24c.99-3.48,3.06-6.56,5.92-8.78l33.8-26.24c2.82-2.19,6.27-3.44,9.84-3.56l78.23-2.63c5.64-.13,10.63,2.25,13.96,6.53l19.05,24.46c3.34,4.3,4.43,9.94,2.9,15.17l-15.53,53.43c-1.52,5.23-5.4,9.3-10.31,11.15.3.32.58.66.86,1,3.34,4.23,4.48,9.79,3.06,14.99l-21.61,79.33c-.96,3.52-3.02,6.64-5.89,8.89l-33.82,26.55c-2.84,2.23-6.31,3.49-9.91,3.61l-80.32,2.7c-.19,0-.38,0-.57,0Zm-.09-45.25l8.33,11.02,65.97-2.21,25.03-19.65,14.09-51.72-24.54.83c2.71,4.02,3.59,9.03,2.36,13.76l-6.66,25.62c-1.89,7.28-8.35,12.44-15.86,12.7l-25.67.86c-5.52.19-10.54-2.21-13.88-6.43-3.34-4.23-4.48-9.79-3.06-14.99l28.54-104.68c1.96-7.18,8.37-12.25,15.81-12.5l27.16-.91c5.7-.2,10.78,2.33,14.11,6.73,3.33,4.41,4.31,10.15,2.63,15.41l-.78,2.44,15.89-.53,9.68-33.29-8.41-10.79-64.09,2.15-25.05,19.45-41.58,146.76Z"/>
    </g>
    <g>
      <path class="cls-1" d="m169.76,704.75l52.03-185.58,35.62-26.6,78.23-2.63,18.72,24.77-52.33,185.59-52.54,1.77,15.23-53.42-27.17.91-15.24,53.42-52.54,1.76Zm123.46-160.48l-25.38.85-15.21,53.12,27.17-.91,13.42-53.06Z"/>
      <path class="cls-1" d="m169.76,721.72c-5.2,0-10.12-2.39-13.35-6.49-3.34-4.26-4.45-9.85-2.99-15.06l52.03-185.58c1.01-3.61,3.19-6.78,6.19-9.02l35.62-26.6c2.78-2.08,6.13-3.25,9.59-3.36l78.23-2.63c5.64-.2,10.78,2.33,14.11,6.73l18.72,24.77c3.2,4.24,4.24,9.73,2.8,14.84l-52.33,185.59c-2.01,7.11-8.38,12.11-15.77,12.36l-52.54,1.77c-5.6.17-10.48-2.18-13.82-6.35-3,4.31-7.9,7.08-13.36,7.26l-52.54,1.76c-.19,0-.38,0-.57,0Zm66.81-192.41l-44.21,157.69,17.01-.57,11.84-41.53c2.02-7.09,8.39-12.06,15.75-12.31l27.17-.91c5.62-.22,10.61,2.24,13.94,6.51,3.34,4.28,4.44,9.89,2.95,15.11l-8.84,31.02,16.87-.57,46.68-165.53-8.33-11.02-64.11,2.15-26.72,19.96Zm16.06,85.9c-5.22,0-10.16-2.4-13.38-6.53-3.34-4.28-4.43-9.9-2.94-15.11l15.21-53.12c2.03-7.08,8.39-12.05,15.75-12.29l25.38-.85c5.5-.25,10.44,2.16,13.78,6.31,3.35,4.15,4.55,9.64,3.24,14.81l-13.42,53.06c-1.86,7.33-8.33,12.55-15.89,12.8l-27.17.91c-.19,0-.38,0-.57,0Z"/>
    </g>
    <g>
      <path class="cls-1" d="m382.7,513.77l33.83-26.54,52.85-1.77,18.72,24.77,33.83-26.53,52.85-1.78,18.73,24.77-52.33,185.59-52.56,1.76,45.56-158.16-27.16.91-45.56,158.16-52.85,1.78,45.56-158.16-25.38.85-45.56,158.16-52.54,1.76,52.03-185.58Z"/>
      <path class="cls-1" d="m330.68,716.32c-5.2,0-10.12-2.39-13.35-6.49-3.34-4.26-4.45-9.85-2.99-15.06l52.03-185.58c.97-3.47,3.03-6.55,5.87-8.77l33.83-26.54c2.84-2.22,6.31-3.49,9.91-3.61l52.85-1.77c5.76-.22,10.77,2.33,14.11,6.73l8.31,10.98,20.23-15.87c2.84-2.22,6.31-3.49,9.91-3.61l52.85-1.78c5.77-.21,10.78,2.33,14.11,6.73l18.73,24.77c3.2,4.24,4.24,9.73,2.8,14.84l-52.33,185.59c-2.01,7.11-8.38,12.11-15.77,12.36l-52.56,1.76c-5.62.21-10.48-2.18-13.81-6.34-3,4.3-7.9,7.07-13.35,7.25l-52.85,1.78c-5.06.19-9.56-1.78-12.88-5.28-3.03,3.66-7.54,5.97-12.5,6.13l-52.54,1.76c-.19,0-.38,0-.57,0Zm66.87-192.62l-44.27,157.91,17.05-.57,42.15-146.31c2.04-7.07,8.39-12.02,15.74-12.27l25.38-.85c5.65-.15,10.62,2.25,13.96,6.53,3.34,4.29,4.43,9.91,2.92,15.13l-39.1,135.72,17.18-.58,42.15-146.31c.63-2.17,1.66-4.15,3.01-5.85-2.48.87-5.14,1.17-7.8.81-4.52-.59-8.61-2.96-11.35-6.6l-13.41-17.75-38.51,1.29-25.09,19.69Zm136.63-4.79c5.22,0,10.16,2.41,13.39,6.54,3.34,4.29,4.43,9.91,2.92,15.13l-39.1,135.72,16.81-.57,46.68-165.53-8.33-11.03-38.51,1.3-25.39,19.92c1.23-.32,2.49-.52,3.8-.56l27.16-.91c.19,0,.38,0,.57,0Z"/>
    </g>
    <g>
      <path class="cls-1" d="m716.71,633.77l-15.21,53.12-105.4,3.54-18.72-24.79,45.67-159.95,33.53-26.52,105.39-3.54-14.91,53.1-78.22,2.63-8.47,26,80.02-2.69-15.21,53.12-80.02,2.69-6.68,25.92,78.22-2.63Z"/>
      <path class="cls-1" d="m596.11,707.41c-5.31,0-10.33-2.49-13.55-6.74l-18.72-24.79c-3.21-4.25-4.24-9.77-2.78-14.89l45.67-159.95c.98-3.42,3-6.44,5.79-8.65l33.53-26.52c2.84-2.25,6.33-3.53,9.96-3.65l105.39-3.54c5.54-.24,10.58,2.23,13.92,6.48,3.34,4.26,4.45,9.86,2.99,15.07l-14.91,53.1c-1.41,5.02-4.99,8.98-9.57,10.98,3.3,4.27,4.36,9.85,2.88,15.04l-15.21,53.12c-1.57,5.49-5.75,9.71-10.98,11.44,3,4.2,3.94,9.55,2.51,14.54l-15.21,53.12c-2.03,7.08-8.39,12.05-15.75,12.29l-105.4,3.54c-.19,0-.38,0-.57,0Zm-.08-45.24l8.31,11.01,84.25-2.83,5.39-18.83-54.92,1.84c-5.47.19-10.46-2.17-13.81-6.34s-4.53-9.68-3.2-14.85l6.68-25.92c1.88-7.29,8.34-12.48,15.87-12.73l67.67-2.27,5.39-18.83-56.71,1.91c-5.77.2-10.82-2.34-14.14-6.76-3.33-4.42-4.29-10.19-2.57-15.46l8.47-26c2.21-6.79,8.43-11.47,15.57-11.71l65.81-2.21,5.28-18.81-76.63,2.58-24.86,19.66-41.85,146.56Z"/>
    </g>
    <g>
      <path class="cls-1" d="m918.64,548.68l23.68-79.11,52.56-1.76-60.48,211.26-52.85,1.77,21.89-79.04-25.38.85-23.38,79.09-52.84,1.78,60.77-211.27,52.55-1.76-21.89,79.04,25.38-.85Z"/>
      <path class="cls-1" d="m801.82,700.5c-5.22,0-10.16-2.4-13.39-6.54-3.34-4.28-4.43-9.91-2.92-15.13l60.77-211.27c2.03-7.07,8.39-12.03,15.74-12.27l52.55-1.76c5.52-.18,10.47,2.18,13.81,6.34,3-4.31,7.91-7.08,13.36-7.26l52.56-1.76c5.56-.21,10.61,2.24,13.95,6.52,3.34,4.28,4.43,9.9,2.94,15.11l-60.48,211.26c-2.03,7.08-8.39,12.05-15.75,12.29l-52.85,1.77c-5.38.22-10.32-2.11-13.66-6.16-3.01,4.19-7.85,6.88-13.21,7.06l-52.84,1.78c-.19,0-.38,0-.57,0Zm73.67-211.7l-50.91,176.97,17.27-.58,19.91-67.35c2.08-7.01,8.4-11.9,15.71-12.15l25.38-.85c5.51-.17,10.56,2.22,13.9,6.46,3.34,4.24,4.47,9.83,3.02,15.03l-15.72,56.78,17.41-.58,50.66-176.97-17.06.57-20.18,67.42c-2.1,6.98-8.41,11.85-15.69,12.1l-25.38.85c-5.63.23-10.57-2.22-13.9-6.46-3.34-4.24-4.47-9.83-3.02-15.03l15.72-56.78-17.13.57Zm43.14,59.88h.07-.07Z"/>
    </g>
    <g>
      <path class="cls-1" d="m1058.27,622.3l45.26-158.14,52.85-1.77-53.82,185.62-34.12,26.56-77.93,2.62-19.32-24.76,52.32-185.57,52.85-1.78-45.26,158.14,27.16-.91Z"/>
      <path class="cls-1" d="m990.51,694.16c-5.22,0-10.16-2.4-13.38-6.53l-19.32-24.76c-3.33-4.26-4.42-9.85-2.96-15.04l52.32-185.57c2.01-7.11,8.38-12.11,15.77-12.36l52.85-1.78c5.54-.19,10.48,2.18,13.81,6.34,3-4.3,7.9-7.07,13.35-7.25l52.85-1.77c5.59-.19,10.63,2.25,13.97,6.54,3.33,4.29,4.42,9.92,2.9,15.15l-53.82,185.62c-1,3.43-3.06,6.47-5.87,8.67l-34.12,26.56c-2.83,2.2-6.28,3.45-9.86,3.57l-77.93,2.62c-.19,0-.38,0-.57,0Zm-.65-45.4l8.72,11.17,63.78-2.14,25.43-19.79,45.77-157.86-17.11.57-41.86,146.26c-2.02,7.08-8.39,12.05-15.75,12.29l-27.16.91c-5.58.17-10.61-2.24-13.95-6.52-3.34-4.28-4.43-9.9-2.94-15.11l38.85-135.72-17.15.58-46.62,165.36Zm68.41-26.46h.07-.07Z"/>
    </g>
    <g>
      <path class="cls-1" d="m1131.14,672.47l60.47-211.26,105.4-3.54,18.72,24.77-14.93,53.41-34.24,28.35,18.72,24.78-15.23,53.41-33.52,26.54-105.4,3.54Zm101.6-81.72l-25.38.85-8.47,25.98,27.17-.91,6.68-25.92Zm-10.47-52.26l25.68-.86,8.47-25.99-27.47.92-6.67,25.93Z"/>
      <path class="cls-1" d="m1131.14,689.44c-5.22,0-10.16-2.4-13.38-6.53-3.34-4.28-4.43-9.9-2.94-15.11l60.47-211.26c2.03-7.08,8.39-12.05,15.75-12.29l105.4-3.54c5.72-.21,10.78,2.33,14.11,6.73l18.72,24.77c3.2,4.23,4.24,9.7,2.8,14.8l-14.93,53.41c-.93,3.33-2.86,6.3-5.52,8.51l-21.74,18,8.94,11.83c3.21,4.25,4.24,9.76,2.78,14.88l-15.23,53.41c-.97,3.42-3,6.45-5.79,8.65l-33.52,26.54c-2.84,2.25-6.34,3.53-9.96,3.66l-105.4,3.54c-.19,0-.38,0-.57,0Zm73.39-211.69l-50.65,176.97,76.51-2.57,24.85-19.67,11.41-40.02-13.62-18.03c-4.71-6.24-4.48-14.72.15-20.65-1.48.48-3.04.76-4.64.81l-25.68.86c-5.52.18-10.46-2.17-13.81-6.34-3.34-4.17-4.53-9.67-3.2-14.85l6.67-25.93c1.88-7.3,8.33-12.48,15.87-12.74l27.47-.92c5.77-.24,10.81,2.34,14.14,6.76,3.33,4.43,4.29,10.19,2.57,15.46l-8.47,25.99c-.22.68-.48,1.34-.78,1.98l22.58-18.7,11.24-40.2-8.34-11.04-84.25,2.83Zm-5.63,156.8c-5.32,0-10.36-2.5-13.56-6.77-3.33-4.43-4.29-10.19-2.57-15.46l8.47-25.98c2.21-6.79,8.43-11.47,15.57-11.71l25.38-.85c5.49-.19,10.46,2.17,13.81,6.34s4.53,9.68,3.2,14.85l-6.68,25.92c-1.88,7.29-8.34,12.48-15.87,12.73l-27.17.91c-.19,0-.38,0-.57,0Z"/>
    </g>
  </g>
  <g>
    <path class="cls-4" d="m59.85,520.24l33.8-26.24,78.22-2.63,19.05,24.47-15.53,53.43-52.25,1.75,8.12-25.38-27.17.91-28.54,104.67,25.69-.87,6.65-25.62-12.24.41,7.3-26.25,65.97-2.22-21.59,79.35-33.83,26.53-80.32,2.7-18.72-24.77,45.4-160.24Z"/>
    <path class="cls-4" d="m167.23,700.76l52.04-185.57,35.62-26.61,78.22-2.63,18.72,24.79-52.34,185.58-52.54,1.76,15.23-53.41-27.17.91-15.23,53.41-52.55,1.77Zm123.48-160.47l-25.38.85-15.22,53.12,27.18-.91,13.42-53.06Z"/>
    <path class="cls-4" d="m380.18,509.79l33.83-26.55,52.85-1.78,18.72,24.79,33.83-26.55,52.85-1.78,18.72,24.79-52.33,185.58-52.54,1.76,45.56-158.16-27.17.91-45.56,158.16-52.85,1.78,45.56-158.16-25.38.85-45.56,158.16-52.56,1.77,52.04-185.57Z"/>
    <path class="cls-4" d="m714.19,629.78l-15.21,53.12-105.4,3.54-18.71-24.77,45.67-159.96,33.53-26.53,105.4-3.54-14.92,53.1-78.22,2.63-8.46,25.99,80.02-2.68-15.21,53.11-80.02,2.69-6.67,25.92,78.22-2.63Z"/>
    <path class="cls-4" d="m916.11,544.7l23.68-79.11,52.55-1.77-60.48,211.27-52.85,1.77,21.88-79.04-25.38.85-23.38,79.1-52.85,1.78,60.77-211.27,52.55-1.76-21.88,79.05,25.37-.85Z"/>
    <path class="cls-4" d="m1055.75,618.31l45.27-158.14,52.85-1.78-53.83,185.64-34.12,26.55-77.93,2.62-19.32-24.75,52.34-185.58,52.85-1.78-45.27,158.14,27.17-.91Z"/>
    <path class="cls-4" d="m1128.61,668.48l60.47-211.26,105.41-3.54,18.71,24.78-14.93,53.41-34.23,28.34,18.72,24.79-15.23,53.41-33.53,26.53-105.4,3.54Zm101.61-81.72l-25.38.86-8.46,25.98,27.17-.91,6.67-25.92Zm-10.47-52.25l25.67-.87,8.47-26-27.47.93-6.68,25.94Z"/>
  </g>
  <g>
    <path class="cls-1" d="m259.55,751.39l-21.49.73,2.2-8.61,21.58-.73,9.05-.31,21.39-.72-2.2,8.6-21.49.73-14.77,59.08-9.05.31,14.77-59.07Z"/>
    <path class="cls-1" d="m300.9,736.91l8.48-.29-8.54,33.94h.19c1.72-2.47,4.08-4.49,7.07-6.07,3-1.59,6.22-2.44,9.68-2.56,2.14-.07,4.11.19,5.92.8,1.81.6,3.28,1.58,4.41,2.93,1.13,1.35,1.85,3.11,2.17,5.28.32,2.17.09,4.75-.69,7.75l-7.25,29.15-8.48.29,6.69-26.76c.49-2.1.64-3.89.47-5.37-.18-1.48-.61-2.67-1.29-3.56-.68-.89-1.6-1.52-2.74-1.9-1.15-.37-2.38-.54-3.7-.49-1.76.06-3.47.4-5.14,1.03-1.67.63-3.21,1.58-4.64,2.86-1.43,1.28-2.69,2.89-3.79,4.82-1.1,1.93-1.98,4.21-2.65,6.82l-5.83,23.32-8.48.29,18.14-72.27Z"/>
    <path class="cls-1" d="m346.31,787.7c-.47,1.98-.49,3.76-.04,5.36.45,1.6,1.22,2.94,2.32,4.04,1.1,1.1,2.48,1.94,4.14,2.51,1.66.58,3.47.83,5.43.76,2.65-.09,5.1-.79,7.35-2.1,2.25-1.31,4.47-3.01,6.65-5.11l5.09,4.76c-6.23,6.34-13.58,9.65-22.06,9.94-3.52.12-6.54-.38-9.08-1.49-2.54-1.12-4.53-2.71-5.98-4.78-1.46-2.07-2.37-4.53-2.73-7.4-.37-2.86-.11-5.98.78-9.36.82-3.38,2.18-6.53,4.08-9.47,1.9-2.94,4.15-5.51,6.74-7.72,2.6-2.2,5.45-3.96,8.58-5.27,3.12-1.3,6.34-2.01,9.68-2.13,3.96-.13,7.13.46,9.52,1.76,2.39,1.31,4.17,3.07,5.36,5.27,1.19,2.2,1.81,4.71,1.87,7.52.06,2.81-.27,5.68-.98,8.61l-.82,3.06-35.91,1.21Zm28.67-7.79c.4-1.91.54-3.65.4-5.23-.14-1.57-.58-2.93-1.33-4.08-.75-1.14-1.85-2.02-3.29-2.64-1.44-.62-3.24-.89-5.39-.81-2.09.07-4.1.53-6.02,1.39-1.92.85-3.67,1.94-5.24,3.26-1.57,1.32-2.88,2.77-3.94,4.35-1.06,1.58-1.77,3.14-2.14,4.67l26.95-.91Z"/>
    <path class="cls-1" d="m453.34,803.41l-8.48.29,1.73-6.98h-.19c-1.72,2.47-4.08,4.49-7.07,6.07-3,1.59-6.22,2.44-9.68,2.56-2.2.07-4.19-.19-5.97-.79-1.78-.6-3.23-1.58-4.36-2.93-1.13-1.35-1.85-3.11-2.17-5.28-.32-2.17-.12-4.75.6-7.75l7.34-29.16,8.48-.29-6.69,26.77c-.55,2.1-.74,3.9-.56,5.37.17,1.48.62,2.67,1.33,3.56.71.89,1.64,1.52,2.79,1.9,1.15.37,2.38.54,3.7.49,3.52-.12,6.76-1.41,9.73-3.88s5.13-6.35,6.48-11.64l5.83-23.32,8.48-.29-11.33,45.31Z"/>
    <path class="cls-1" d="m477.49,757.67l8.48-.29-1.73,6.98h.19c1.72-2.46,4.08-4.49,7.07-6.07,3-1.59,6.22-2.44,9.68-2.56,2.14-.07,4.11.19,5.92.8,1.81.6,3.28,1.58,4.41,2.93,1.13,1.35,1.85,3.11,2.17,5.28.32,2.17.09,4.75-.69,7.75l-7.25,29.15-8.48.29,6.69-26.76c.49-2.1.64-3.89.47-5.37-.18-1.48-.61-2.67-1.29-3.56-.68-.89-1.6-1.52-2.74-1.9-1.15-.37-2.38-.54-3.7-.49-1.76.06-3.47.4-5.14,1.03-1.67.63-3.21,1.58-4.64,2.86-1.43,1.28-2.69,2.89-3.79,4.82-1.1,1.93-1.98,4.21-2.65,6.82l-5.83,23.32-8.48.29,11.33-45.31Z"/>
    <path class="cls-1" d="m530.55,755.87l8.48-.29-11.33,45.31-8.48.29,11.33-45.31Zm2.12-16.18c.44-1.72,1.43-3.22,2.95-4.51,1.52-1.28,3.13-1.95,4.83-2.01,1.7-.06,3.01.51,3.94,1.72.93,1.2,1.17,2.66.72,4.38-.45,1.72-1.43,3.22-2.95,4.51-1.52,1.28-3.13,1.95-4.83,2.01s-3.01-.51-3.94-1.71c-.93-1.2-1.17-2.66-.72-4.38Z"/>
    <path class="cls-1" d="m547.14,755.31l9.8-.33,4.66,34.25,21.54-35.13,9.05-.31-28.86,45.9-9.33.32-6.86-44.69Z"/>
    <path class="cls-1" d="m599.45,779.14c-.47,1.98-.49,3.76-.04,5.36.45,1.6,1.22,2.94,2.32,4.04,1.1,1.1,2.48,1.94,4.14,2.51,1.66.58,3.47.83,5.43.76,2.65-.09,5.1-.79,7.35-2.1,2.25-1.31,4.47-3.01,6.65-5.11l5.09,4.76c-6.23,6.34-13.58,9.65-22.06,9.94-3.52.12-6.54-.38-9.08-1.49-2.54-1.11-4.53-2.71-5.98-4.77-1.46-2.07-2.37-4.53-2.73-7.4-.37-2.86-.11-5.98.78-9.36.82-3.38,2.18-6.53,4.08-9.47,1.9-2.94,4.15-5.51,6.74-7.72,2.6-2.2,5.46-3.96,8.58-5.27,3.12-1.3,6.34-2.02,9.68-2.13,3.96-.13,7.13.46,9.52,1.76,2.39,1.31,4.17,3.07,5.36,5.27,1.19,2.2,1.81,4.71,1.87,7.52.06,2.81-.27,5.68-.98,8.61l-.82,3.06-35.91,1.21Zm28.67-7.79c.4-1.91.54-3.65.4-5.23-.14-1.57-.58-2.93-1.33-4.08-.75-1.14-1.85-2.02-3.29-2.64-1.44-.62-3.24-.89-5.39-.81-2.09.07-4.1.53-6.02,1.39-1.92.86-3.67,1.94-5.24,3.26-1.57,1.32-2.88,2.77-3.94,4.35-1.06,1.58-1.77,3.14-2.14,4.67l26.95-.91Z"/>
    <path class="cls-1" d="m652.03,751.77l8.48-.29-1.73,6.98h.19c1.72-2.47,4.01-4.49,6.88-6.07s5.72-2.42,8.55-2.52c1.38-.05,2.58.1,3.61.45l-2.74,9.29c-.67-.17-1.33-.3-1.97-.41-.65-.1-1.31-.14-2-.12-4.15.14-7.61,1.43-10.39,3.86-2.78,2.43-4.8,6.13-6.05,11.1l-5.68,22.75-8.48.29,11.33-45.31Z"/>
    <path class="cls-1" d="m707.76,761.16c-.67-1.24-1.64-2.27-2.89-3.08-1.25-.81-2.95-1.18-5.09-1.11-2.01.07-3.87.56-5.56,1.47-1.7.91-2.74,2.19-3.11,3.85-.34,1.34-.2,2.41.43,3.21.63.8,1.46,1.44,2.51,1.91,1.04.47,2.18.81,3.41,1.02,1.23.21,2.3.4,3.22.55,1.71.38,3.28.87,4.72,1.45,1.44.58,2.61,1.37,3.54,2.34.92.98,1.52,2.19,1.79,3.64.27,1.45.17,3.22-.32,5.32-.67,2.55-1.75,4.75-3.24,6.6-1.49,1.85-3.25,3.38-5.26,4.59-2.01,1.2-4.17,2.1-6.45,2.68-2.29.58-4.53.91-6.73.99-3.71.12-6.8-.34-9.28-1.39-2.48-1.05-4.46-3.07-5.93-6.06l7.67-5.57c1.04,1.36,2.28,2.55,3.74,3.57,1.46,1.03,3.42,1.5,5.88,1.41,2.21-.07,4.38-.61,6.5-1.59,2.12-.99,3.46-2.47,4-4.45.33-1.27.21-2.31-.36-3.12-.57-.8-1.35-1.42-2.33-1.86-.99-.44-2.08-.78-3.28-1.03-1.2-.24-2.23-.45-3.09-.61-1.72-.38-3.33-.84-4.85-1.35-1.51-.52-2.78-1.23-3.81-2.15-1.03-.91-1.73-2.09-2.1-3.53-.37-1.44-.28-3.24.28-5.41.58-2.36,1.58-4.43,3-6.21,1.42-1.79,3.08-3.28,4.97-4.48,1.89-1.2,3.93-2.12,6.13-2.77,2.2-.64,4.34-1,6.41-1.07,3.02-.1,5.76.37,8.24,1.43,2.48,1.05,4.19,2.89,5.15,5.51l-7.92,5.29Z"/>
    <path class="cls-1" d="m728.56,774.77c-.48,1.98-.49,3.76-.04,5.36.45,1.6,1.22,2.94,2.32,4.04,1.1,1.1,2.48,1.94,4.14,2.51,1.66.58,3.47.83,5.43.76,2.65-.09,5.1-.79,7.35-2.1,2.25-1.31,4.47-3.01,6.65-5.11l5.09,4.76c-6.23,6.34-13.58,9.65-22.06,9.94-3.52.12-6.55-.38-9.08-1.49-2.54-1.12-4.53-2.71-5.98-4.77-1.46-2.07-2.37-4.53-2.73-7.4-.37-2.86-.11-5.98.78-9.36.82-3.38,2.18-6.53,4.08-9.47,1.9-2.94,4.14-5.51,6.74-7.72,2.6-2.2,5.46-3.96,8.58-5.27,3.12-1.31,6.35-2.02,9.68-2.13,3.96-.13,7.13.46,9.52,1.76,2.39,1.31,4.17,3.07,5.36,5.27s1.81,4.71,1.87,7.52c.06,2.81-.27,5.68-.98,8.61l-.82,3.06-35.91,1.21Zm28.67-7.79c.4-1.91.54-3.65.4-5.23-.14-1.57-.58-2.93-1.33-4.08-.75-1.14-1.85-2.02-3.29-2.64-1.44-.62-3.24-.89-5.39-.81-2.09.07-4.09.54-6.02,1.39-1.92.86-3.67,1.94-5.24,3.26-1.57,1.32-2.88,2.77-3.94,4.35-1.06,1.58-1.78,3.14-2.13,4.67l26.95-.91Z"/>
    <path class="cls-1" d="m799.51,769.24c.81-3.31,2.2-6.42,4.16-9.33,1.96-2.91,4.28-5.48,6.98-7.72,2.69-2.24,5.63-4.03,8.82-5.37,3.19-1.34,6.44-2.07,9.78-2.18,3.33-.11,6.27.4,8.84,1.55,2.56,1.15,4.65,2.77,6.26,4.86,1.61,2.09,2.66,4.55,3.15,7.38s.33,5.9-.48,9.21c-.88,3.32-2.28,6.44-4.21,9.38-1.93,2.94-4.24,5.51-6.93,7.72-2.69,2.21-5.63,3.98-8.82,5.32-3.19,1.34-6.45,2.07-9.78,2.18s-6.29-.4-8.88-1.55c-2.59-1.14-4.68-2.75-6.26-4.81-1.58-2.06-2.63-4.52-3.15-7.38-.52-2.86-.35-5.94.53-9.26Zm9.05-.31c-.57,2.29-.77,4.4-.58,6.32.19,1.92.74,3.55,1.66,4.87.91,1.33,2.19,2.36,3.83,3.09,1.64.74,3.59,1.06,5.85.99,2.26-.08,4.4-.54,6.4-1.4,2-.86,3.81-1.99,5.41-3.41,1.6-1.41,2.99-3.1,4.19-5.07,1.19-1.97,2.08-4.1,2.65-6.39.57-2.29.77-4.4.58-6.32-.19-1.92-.76-3.54-1.7-4.87-.95-1.33-2.22-2.36-3.83-3.09-1.61-.74-3.54-1.07-5.8-.99-2.26.08-4.4.54-6.4,1.4-2.01.86-3.83,1.99-5.46,3.41-1.63,1.41-3.03,3.1-4.19,5.07-1.16,1.97-2.03,4.1-2.6,6.39Z"/>
    <path class="cls-1" d="m864.74,751.97l-9.61.32,1.88-7.46,9.61-.33,2.56-10.13c1.56-6.06,3.83-10.6,6.83-13.64,3-3.04,7.28-4.65,12.85-4.84.94-.03,1.92-.03,2.95,0,1.03.03,2.08.18,3.17.46l-2.84,7.68c-.72-.29-1.45-.49-2.18-.59-.74-.1-1.55-.14-2.43-.11-1.57.05-2.89.33-3.95.85-1.06.51-1.96,1.22-2.68,2.13-.73.91-1.34,1.99-1.82,3.24-.49,1.25-.95,2.67-1.38,4.26l-2.57,10.42,10.07-.34-1.87,7.46-10.15.34-9.39,37.85-8.48.29,9.45-37.85Z"/>
    <path class="cls-1" d="m954.48,786.09c-.89,3.44-2.27,6.6-4.13,9.47-1.86,2.87-4.12,5.38-6.78,7.53s-5.64,3.84-8.95,5.09c-3.31,1.25-6.79,1.93-10.44,2.06-4.28.14-8.05-.33-11.32-1.42-3.26-1.09-6.11-3.08-8.54-5.97l7.51-7.46c1.61,2.35,3.56,4.1,5.83,5.25,2.28,1.16,5.05,1.68,8.32,1.57,3.14-.11,5.86-.66,8.17-1.65,2.3-1,4.24-2.25,5.82-3.75,1.58-1.51,2.85-3.21,3.82-5.1.97-1.9,1.71-3.8,2.24-5.72l1.6-6.69h-.28c-2.32,2.8-5.03,4.9-8.13,6.3-3.1,1.4-6.19,2.15-9.27,2.26-3.27.11-6.15-.38-8.66-1.46-2.51-1.08-4.51-2.63-6-4.63-1.49-2-2.46-4.4-2.89-7.2-.43-2.8-.21-5.85.66-9.17.81-3.31,2.12-6.44,3.93-9.37,1.8-2.94,3.96-5.52,6.46-7.75,2.51-2.23,5.32-4,8.44-5.31,3.12-1.3,6.41-2.02,9.86-2.13,3.02-.1,5.78.47,8.3,1.71,2.52,1.24,4.3,3.05,5.35,5.41h.19s1.58-6.5,1.58-6.5l8.48-.29-11.19,44.93Zm-13.71-37.26c-2.26.08-4.4.54-6.4,1.4-2.01.86-3.83,1.99-5.46,3.41-1.63,1.41-3.03,3.1-4.19,5.07-1.16,1.97-2.03,4.1-2.6,6.39-1.21,4.59-.84,8.23,1.11,10.91,1.95,2.68,5.18,3.95,9.71,3.79s8.45-1.66,11.78-4.52c3.33-2.86,5.6-6.59,6.81-11.18.57-2.29.77-4.4.58-6.32-.19-1.92-.76-3.54-1.7-4.87-.94-1.33-2.22-2.36-3.83-3.09-1.61-.74-3.54-1.06-5.8-.99Z"/>
    <path class="cls-1" d="m977.29,746.26c2.95-2.31,6.14-4.08,9.57-5.3,3.42-1.22,6.71-1.89,9.85-1.99,3.27-.11,5.98.21,8.15.96,2.17.75,3.83,1.8,4.99,3.15,1.16,1.35,1.86,2.92,2.09,4.72.23,1.79.11,3.68-.36,5.65l-5.81,23.13c-.43,1.59-.79,3.06-1.06,4.4-.28,1.34-.48,2.61-.62,3.81l-7.54.25c.19-1.14.4-2.29.62-3.43.22-1.15.5-2.29.81-3.44h-.19c-2.66,3-5.42,5.15-8.29,6.45-2.87,1.3-6,2-9.39,2.12-2.07.07-3.97-.15-5.7-.66-1.73-.51-3.15-1.31-4.28-2.41-1.13-1.1-1.89-2.48-2.3-4.14-.41-1.66-.33-3.61.24-5.84.71-2.93,1.96-5.4,3.75-7.42,1.79-2.02,3.97-3.69,6.53-5.01,2.56-1.32,5.39-2.3,8.5-2.94,3.11-.64,6.36-1.02,9.75-1.14l6.22-.21.5-1.91c.32-1.15.4-2.29.25-3.42s-.55-2.14-1.21-3.04c-.65-.89-1.57-1.59-2.77-2.09-1.2-.5-2.71-.71-4.53-.65-1.63.06-3.11.26-4.44.62-1.32.36-2.53.8-3.62,1.31-1.09.51-2.13,1.1-3.11,1.76-.98.67-1.95,1.3-2.89,1.9l-3.73-5.18Zm19.44,17.16c-2.02.07-4.11.25-6.28.54-2.17.3-4.21.79-6.11,1.49-1.9.7-3.55,1.64-4.94,2.82-1.39,1.19-2.31,2.67-2.77,4.45-.67,2.62-.29,4.46,1.16,5.55,1.45,1.09,3.65,1.58,6.62,1.48,2.33-.08,4.41-.54,6.24-1.4,1.83-.85,3.41-1.93,4.75-3.24,1.34-1.31,2.43-2.75,3.27-4.33.84-1.58,1.44-3.13,1.8-4.66l.8-2.87-4.54.15Z"/>
    <path class="cls-1" d="m1027.4,739.07l7.92-.27-1.74,7.07h.19c.38-.65,1.07-1.46,2.06-2.45.98-.98,2.22-1.92,3.7-2.83,1.48-.9,3.11-1.68,4.91-2.35,1.79-.66,3.7-1.03,5.71-1.09,6.47-.22,10.39,2.43,11.76,7.94,2.19-2.85,4.78-5.03,7.76-6.52,2.98-1.49,5.82-2.28,8.51-2.37,3.45-.12,6.12.36,8.03,1.43,1.91,1.07,3.24,2.53,4,4.37.76,1.84,1.08,3.94.97,6.32-.11,2.37-.5,4.84-1.17,7.38l-6.46,26.38-8.48.29,6.33-25.24c.44-1.72.74-3.37.89-4.96.15-1.58.04-2.97-.33-4.16-.37-1.19-1.09-2.13-2.17-2.82-1.08-.69-2.66-1-4.73-.93-4.08.14-7.32,1.51-9.71,4.12-2.39,2.61-4.1,5.92-5.12,9.94l-6.19,24.76-8.48.29,5.88-23.71c.56-2.17.95-4.14,1.19-5.92.23-1.78.19-3.31-.14-4.59s-1.01-2.27-2.06-2.96c-1.05-.69-2.61-1-4.68-.93-1.51.05-3.05.4-4.63,1.06-1.58.66-3.04,1.6-4.41,2.85-1.36,1.25-2.59,2.82-3.68,4.72-1.09,1.9-1.97,4.13-2.63,6.68l-5.86,23.51-8.48.29,11.33-45.31Z"/>
    <path class="cls-1" d="m1107.51,761.95c-.48,1.98-.49,3.76-.04,5.36.45,1.6,1.22,2.94,2.32,4.04,1.1,1.1,2.48,1.94,4.14,2.51,1.66.58,3.47.83,5.43.76,2.65-.09,5.1-.79,7.35-2.1,2.25-1.31,4.47-3.01,6.65-5.11l5.09,4.76c-6.23,6.34-13.58,9.65-22.06,9.94-3.52.12-6.54-.38-9.08-1.49-2.54-1.12-4.53-2.71-5.98-4.78-1.46-2.07-2.37-4.53-2.73-7.4-.37-2.86-.11-5.98.78-9.36.82-3.38,2.18-6.53,4.08-9.47,1.9-2.94,4.14-5.51,6.74-7.72,2.6-2.2,5.46-3.96,8.58-5.27,3.12-1.3,6.34-2.01,9.68-2.13,3.96-.13,7.13.46,9.52,1.76,2.39,1.31,4.17,3.07,5.37,5.27,1.19,2.2,1.81,4.71,1.87,7.52.06,2.81-.27,5.68-.98,8.61l-.82,3.06-35.91,1.21Zm28.67-7.79c.4-1.91.54-3.65.4-5.23-.14-1.57-.58-2.93-1.33-4.08-.75-1.14-1.85-2.02-3.29-2.64-1.44-.62-3.24-.89-5.39-.81-2.09.07-4.09.53-6.02,1.39-1.92.85-3.67,1.94-5.24,3.26-1.57,1.32-2.88,2.77-3.94,4.35-1.06,1.58-1.77,3.14-2.13,4.67l26.95-.91Z"/>
    <path class="cls-1" d="m1180.96,745.16c-.67-1.24-1.64-2.27-2.89-3.08-1.25-.81-2.95-1.18-5.09-1.11-2.01.07-3.87.56-5.56,1.47-1.7.91-2.74,2.19-3.11,3.85-.34,1.34-.2,2.41.43,3.21.63.8,1.46,1.44,2.51,1.9,1.04.47,2.18.81,3.41,1.02,1.23.21,2.3.4,3.22.55,1.71.38,3.28.87,4.72,1.45,1.44.58,2.61,1.37,3.54,2.34.92.98,1.52,2.19,1.79,3.64.27,1.45.17,3.22-.32,5.32-.67,2.55-1.75,4.75-3.24,6.6-1.49,1.85-3.25,3.38-5.26,4.59-2.01,1.2-4.17,2.1-6.45,2.68-2.29.58-4.53.91-6.73.99-3.71.12-6.8-.34-9.28-1.39-2.48-1.05-4.46-3.07-5.93-6.06l7.67-5.57c1.04,1.36,2.28,2.55,3.74,3.57,1.46,1.03,3.42,1.5,5.88,1.41,2.21-.08,4.38-.61,6.5-1.59,2.12-.99,3.46-2.47,4-4.45.33-1.27.21-2.31-.36-3.12-.57-.8-1.35-1.42-2.33-1.86-.99-.44-2.08-.78-3.28-1.03-1.2-.24-2.23-.45-3.09-.61-1.72-.38-3.33-.84-4.85-1.35-1.51-.52-2.78-1.23-3.81-2.15-1.03-.91-1.73-2.09-2.1-3.53-.37-1.44-.28-3.24.28-5.41.58-2.36,1.58-4.43,3-6.21,1.42-1.79,3.08-3.28,4.97-4.48,1.89-1.2,3.93-2.12,6.13-2.77,2.2-.64,4.34-1,6.41-1.07,3.02-.1,5.76.37,8.24,1.43,2.48,1.05,4.19,2.89,5.15,5.51l-7.92,5.29Z"/>
  </g>
  <path class="cls-1" d="m17.84,751.88c-2.27,0-4.14-.98-4.22-2.22-.08-1.27,1.75-2.33,4.08-2.37l207.45-3.76c2.35-.03,4.28.95,4.36,2.22.08,1.27-1.75,2.33-4.08,2.37l-207.45,3.76s-.09,0-.14,0Z"/>
</svg>