<svg width="32" height="32" viewBox="0 0 32 32" fill="none" xmlns="http://www.w3.org/2000/svg">
<g id="icon_insta">
<path id="Vector" fill-rule="evenodd" clip-rule="evenodd" d="M19.8407 7.03906H12.1606C9.33295 7.03906 7.04065 9.33136 7.04065 12.1591V19.8391C7.04065 22.6667 9.33295 24.9591 12.1606 24.9591H19.8407C22.6683 24.9591 24.9607 22.6667 24.9607 19.8391V12.1591C24.9607 9.33136 22.6683 7.03906 19.8407 7.03906Z" stroke="#FEFEFE" stroke-width="2" stroke-linecap="round" stroke-linejoin="round"/>
<path id="Vector_2" fill-rule="evenodd" clip-rule="evenodd" d="M15.9994 19.8402C13.8785 19.8402 12.1594 18.121 12.1594 16.0002C12.1594 13.8793 13.8785 12.1602 15.9994 12.1602C18.1202 12.1602 19.8394 13.8793 19.8394 16.0002C19.8394 17.0185 19.4348 17.9953 18.7146 18.7154C17.9945 19.4355 17.0177 19.8402 15.9994 19.8402Z" stroke="#FEFEFE" stroke-width="2" stroke-linecap="round" stroke-linejoin="round"/>
<path id="Vector_3" d="M20.8406 10.8802C20.8406 10.7255 20.966 10.6002 21.1206 10.6002C21.2753 10.6002 21.4006 10.7255 21.4006 10.8802C21.4006 11.0348 21.2753 11.1602 21.1206 11.1602C20.966 11.1602 20.8406 11.0348 20.8406 10.8802Z" stroke="#FEFEFE" stroke-width="2"/>
<path id="Vector_4" d="M21.12 10.2395C20.7665 10.2395 20.48 10.5261 20.48 10.8795C20.48 11.233 20.7665 11.5195 21.12 11.5195C21.4734 11.5195 21.76 11.233 21.76 10.8795C21.76 10.5261 21.4734 10.2395 21.12 10.2395Z" stroke="#FEFEFE" stroke-width="2" stroke-linecap="round"/>
</g>
</svg>
