<svg width="32" height="32" viewBox="0 0 32 32" fill="none" xmlns="http://www.w3.org/2000/svg">
<g id="icon_fb">
<path id="Vector" d="M15.9999 4.5C9.39993 4.5 3.99994 9.88799 3.99994 16.524C3.99994 22.524 8.39193 27.504 14.1279 28.404V20.004H11.0799V16.524H14.1279V13.872C14.1279 10.86 15.9159 9.20399 18.6639 9.20399C19.9719 9.20399 21.3399 9.43199 21.3399 9.43199V12.396H19.8279C18.3399 12.396 17.8719 13.32 17.8719 14.268V16.524H21.2079L20.6679 20.004H17.8719V28.404C20.6996 27.9574 23.2746 26.5146 25.1318 24.336C26.989 22.1575 28.0064 19.3867 27.9999 16.524C27.9999 9.88799 22.5999 4.5 15.9999 4.5Z" fill="#FEFEFE"/>
</g>
</svg>
