<svg width="32" height="32" viewBox="0 0 32 32" fill="none" xmlns="http://www.w3.org/2000/svg">
<g id="icon_twitter">
<g id="Page-1">
<g id="Dribbble-Light-Preview">
<g id="icons">
<path id="twitter-[#154]" fill-rule="evenodd" clip-rule="evenodd" d="M10.7481 25.6004C19.8046 25.6004 24.7583 18.2126 24.7583 11.8067C24.7583 11.5964 24.7583 11.3876 24.7439 11.1797C25.7075 10.4944 26.5391 9.64362 27.2003 8.6701C26.3027 9.06234 25.3487 9.31958 24.3731 9.433C25.4003 8.8269 26.1695 7.8747 26.5379 6.75113C25.5707 7.31586 24.5135 7.71443 23.4107 7.92829C21.5458 5.9765 18.427 5.88194 16.4434 7.71793C15.1654 8.90176 14.6218 10.6668 15.019 12.3504C11.0601 12.1543 7.37127 10.3136 4.87043 7.28551C3.56362 9.50075 4.23203 12.3336 6.39565 13.7561C5.61204 13.7336 4.84523 13.5259 4.16002 13.1502V13.2118C4.16122 15.5192 5.81365 17.506 8.11048 17.9632C7.38567 18.1581 6.62486 18.1864 5.88805 18.0458C6.53245 20.0212 8.38168 21.3742 10.4877 21.4132C8.74408 22.7625 6.59006 23.4951 4.37243 23.4927C3.98122 23.4916 3.59002 23.4691 3.20001 23.423C5.45244 24.8455 8.07207 25.6004 10.7481 25.5969" fill="#FEFEFE"/>
</g>
</g>
</g>
</g>
</svg>
