<svg width="32" height="32" viewBox="0 0 32 32" fill="none" xmlns="http://www.w3.org/2000/svg">
<g id="icon_youtube">
<g id="Page-1">
<g id="Dribbble-Light-Preview">
<g id="icons">
<path id="youtube-[#168]" fill-rule="evenodd" clip-rule="evenodd" d="M13.4252 18.6706V11.4875C15.9752 12.6874 17.9502 13.8465 20.286 15.0962C18.3595 16.1647 15.9752 17.3635 13.4252 18.6706ZM27.6365 7.91499C27.1966 7.33546 26.4469 6.88434 25.6488 6.73499C23.3027 6.28949 8.66687 6.28822 6.32213 6.73499C5.68207 6.85498 5.11212 7.14501 4.62252 7.59562C2.55955 9.51037 3.20598 19.7786 3.70324 21.4419C3.91234 22.1618 4.18266 22.681 4.52308 23.0219C4.96169 23.4725 5.56221 23.7827 6.25199 23.9219C8.18363 24.3214 18.1351 24.5448 25.6079 23.9819C26.2965 23.8619 26.9059 23.5416 27.3866 23.0719C29.294 21.1648 29.164 10.3199 27.6365 7.91499Z" fill="#FEFEFE"/>
</g>
</g>
</g>
</g>
</svg>
